<svg width="1370" height="240" viewBox="0 0 1370 240" fill="none" xmlns="http://www.w3.org/2000/svg">
<circle cx="1245" cy="157" r="6" fill="white" fill-opacity="0.4"/>
<circle cx="710" cy="46" r="6" fill="white" fill-opacity="0.4"/>
<circle cx="232" cy="122" r="6" fill="white" fill-opacity="0.4"/>
<circle cx="167" cy="186" r="6" fill="white" fill-opacity="0.4"/>
<circle cx="90" cy="58" r="6" fill="white" fill-opacity="0.4"/>
<circle cx="463" cy="29" r="6" fill="white" fill-opacity="0.4"/>
<circle cx="516.5" cy="76.5" r="11.5" fill="white" fill-opacity="0.4"/>
<circle cx="820.5" cy="22.5" r="11.5" fill="white" fill-opacity="0.4"/>
<circle cx="737.5" cy="111.5" r="11.5" fill="white" fill-opacity="0.4"/>
<circle cx="1192.5" cy="42.5" r="11.5" fill="white" fill-opacity="0.4"/>
<circle cx="1103.5" cy="111.5" r="11.5" fill="white" fill-opacity="0.4"/>
<circle cx="1307.5" cy="82.5" r="5.5" fill="white" fill-opacity="0.4"/>
<circle cx="1209.5" cy="209.5" r="5.5" fill="white" fill-opacity="0.4"/>
<circle cx="948.5" cy="45.5" r="11.5" fill="white" fill-opacity="0.4"/>
<circle cx="1358.5" cy="17.5" r="11.5" fill="white" fill-opacity="0.4"/>
<circle cx="58.5" cy="11.5" r="11.5" fill="white" fill-opacity="0.4"/>
<circle cx="47" cy="134" r="6" fill="white" fill-opacity="0.4"/>
<circle cx="991" cy="100" r="6" fill="white" fill-opacity="0.4"/>
<circle cx="1101" cy="43" r="9" fill="#B0B9C2"/>
<circle cx="1142" cy="166" r="9" fill="#B0B9C2"/>
<circle cx="591" cy="97" r="9" fill="#B0B9C2"/>
<circle cx="591" cy="97" r="9" fill="#B0B9C2"/>
<circle cx="620.5" cy="56.5" r="4.5" fill="#B0B9C2"/>
<circle cx="860.5" cy="83.5" r="4.5" fill="#B0B9C2"/>
<circle cx="1176.5" cy="104.5" r="4.5" fill="#B0B9C2"/>
<circle cx="360.5" cy="123.5" r="4.5" fill="#B0B9C2"/>
<circle cx="360.5" cy="123.5" r="4.5" fill="#B0B9C2"/>
<circle cx="141.5" cy="104.5" r="4.5" fill="#B0B9C2"/>
<circle cx="243.5" cy="205.5" r="4.5" fill="#B0B9C2"/>
<circle cx="96.5" cy="235.5" r="4.5" fill="#B0B9C2"/>
<circle cx="356" cy="55" r="9" fill="#B0B9C2"/>
<circle cx="176" cy="40" r="9" fill="#B0B9C2"/>
<circle cx="9" cy="210" r="9" fill="#B0B9C2"/>
</svg>
