<svg width="368" height="82" viewBox="0 0 368 82" fill="none" xmlns="http://www.w3.org/2000/svg">
<ellipse cx="365.296" cy="60.95" rx="2.09781" ry="2.1" fill="white"/>
<ellipse cx="248.241" cy="16.1" rx="2.09781" ry="2.1" fill="white"/>
<ellipse cx="81.1154" cy="42.7" rx="2.09781" ry="2.1" fill="white"/>
<ellipse cx="212.098" cy="6.1" rx="2.09781" ry="2.1" fill="white"/>
<ellipse cx="31.4672" cy="20.3" rx="2.09781" ry="2.1" fill="white"/>
<ellipse cx="161.881" cy="10.15" rx="2.09781" ry="2.1" fill="white"/>
<ellipse cx="180.586" cy="26.775" rx="4.0208" ry="4.025" fill="white"/>
<ellipse cx="286.876" cy="7.87501" rx="4.0208" ry="4.025" fill="white"/>
<ellipse cx="257.856" cy="39.025" rx="4.0208" ry="4.025" fill="white"/>
<ellipse cx="352.883" cy="79.325" rx="1.92299" ry="1.925" fill="white"/>
<ellipse cx="331.629" cy="15.925" rx="4.0208" ry="4.025" fill="white"/>
<ellipse cx="20.4537" cy="4.025" rx="4.0208" ry="4.025" fill="white"/>
<ellipse cx="16.4328" cy="46.9" rx="2.09781" ry="2.1" fill="white"/>
<ellipse cx="338.098" cy="42.1" rx="2.09781" ry="2.1" fill="white"/>
<ellipse cx="314.948" cy="21.05" rx="3.14672" ry="3.15" fill="#B0B9C2"/>
<path d="M157.147 34.85C157.147 36.5897 155.738 38 154 38C152.262 38 150.853 36.5897 150.853 34.85C150.853 33.1103 152.262 31.7 154 31.7C155.738 31.7 157.147 33.1103 157.147 34.85Z" fill="#B0B9C2"/>
<ellipse cx="206.634" cy="33.95" rx="3.14672" ry="3.15" fill="#B0B9C2"/>
<ellipse cx="206.634" cy="33.95" rx="3.14672" ry="3.15" fill="#B0B9C2"/>
<ellipse cx="216.949" cy="19.775" rx="1.57336" ry="1.575" fill="#B0B9C2"/>
<ellipse cx="45.5734" cy="41.575" rx="1.57336" ry="1.575" fill="#B0B9C2"/>
<ellipse cx="126.043" cy="43.225" rx="1.57336" ry="1.575" fill="#B0B9C2"/>
<ellipse cx="126.043" cy="43.225" rx="1.57336" ry="1.575" fill="#B0B9C2"/>
<path d="M364.573 9.42501C364.573 10.2949 363.869 11 363 11C362.131 11 361.427 10.2949 361.427 9.42501C361.427 8.55516 362.131 7.85001 363 7.85001C363.869 7.85001 364.573 8.55516 364.573 9.42501Z" fill="#B0B9C2"/>
<ellipse cx="87.5734" cy="22.575" rx="1.57336" ry="1.575" fill="#B0B9C2"/>
<ellipse cx="304.573" cy="38.575" rx="1.57336" ry="1.575" fill="#B0B9C2"/>
<ellipse cx="124.47" cy="19.25" rx="3.14672" ry="3.15" fill="#B0B9C2"/>
<ellipse cx="61.5359" cy="14" rx="3.14672" ry="3.15" fill="#B0B9C2"/>
<ellipse cx="3.14672" cy="73.5" rx="3.14672" ry="3.15" fill="#B0B9C2"/>
</svg>
